<svg width="51" height="32" viewBox="0 0 51 32" fill="none" xmlns="http://www.w3.org/2000/svg">
<path d="M50.6154 0.788265H0.769287V5.17021H50.6154V0.788265Z" fill="#EDEDED"/>
<path d="M24.1354 10.0063L21.5431 22.0612H18.4076L21.0004 10.0063H24.1354ZM37.3264 17.7904L38.9767 13.2636L39.9261 17.7904H37.3264ZM40.826 22.0612H43.7254L41.1925 10.0063H38.5179C37.9148 10.0063 37.4073 10.3543 37.1823 10.8903L32.4774 22.0612H35.7703L36.4239 20.2611H40.446L40.826 22.0612ZM32.641 18.1257C32.6548 14.9445 28.2194 14.7681 28.2491 13.3468C28.2588 12.9147 28.6726 12.4543 29.5785 12.3368C30.0275 12.2792 31.2664 12.2328 32.6707 12.8764L33.2201 10.3188C32.4657 10.0477 31.4949 9.78632 30.2872 9.78632C27.1877 9.78632 25.0073 11.424 24.9897 13.7709C24.9697 15.5065 26.5477 16.4742 27.7335 17.0519C28.9561 17.6424 29.3657 18.0222 29.3602 18.5497C29.3519 19.3586 28.3846 19.7167 27.4849 19.7303C25.9074 19.7548 24.9932 19.3063 24.2645 18.9683L23.6954 21.6108C24.4294 21.9449 25.7816 22.2356 27.1812 22.2505C30.4763 22.2505 32.6313 20.6321 32.641 18.1257ZM19.6552 10.0063L14.575 22.0612H11.2612L8.76089 12.4407C8.6094 11.849 8.47741 11.6316 8.01674 11.3817C7.26235 10.9743 6.01781 10.5935 4.9231 10.3566L4.9973 10.0063H10.3327C11.0122 10.0063 11.6236 10.4565 11.7791 11.2349L13.0998 18.2113L16.3613 10.0063H19.6552Z" fill="#EDEDED"/>
<path d="M50.6154 26.8676H0.769287V31.25H50.6154V26.8676Z" fill="#EDEDED"/>
</svg>
